<svg height="511pt" viewBox="-17 0 511 511.99936" width="511pt" xmlns="http://www.w3.org/2000/svg"><path d="m315.753906 362.453125-50.84375-88.070313 50.84375-88.066406h101.695313l50.847656 88.066406-50.847656 88.070313zm0 0" fill="#f6838d"/><path d="m315.757812 186.316406-50.847656-88.070312 50.847656-88.070313h101.695313l50.847656 88.070313-50.847656 88.070312zm0 0" fill="#ffd89e"/><path d="m163.214844 274.382812-50.84375-88.070312 50.84375-88.066406h101.695312l50.847656 88.066406-50.847656 88.070312zm0 0" fill="#9bc6ff"/><path d="m61.523438 450.523438-50.847657-88.070313 50.847657-88.070313h101.691406l50.847656 88.070313-50.847656 88.070313zm0 0" fill="#ffc15a"/><path d="m429.199219 186.316406 47.914062-82.984375c1.816407-3.148437 1.816407-7.027343 0-10.175781l-50.847656-88.070312c-1.820313-3.148438-5.175781-5.085938-8.8125-5.085938h-101.695313c-3.636718 0-6.992187 1.9375-8.8125 5.085938l-47.90625 82.984374h-90.050781l-27.640625-46.398437c-6.6875-11.226563-24.179687-.824219-17.484375 10.414063l27.550781 46.25-44.921874 77.800781h-53.917969c-13.066407 0-13.085938 20.351562 0 20.351562h53.917969l39.101562 67.71875h-84.070312c-3.636719 0-6.996094 1.941407-8.8125 5.089844l-50.847657 88.070313c-1.816406 3.148437-1.816406 7.027343 0 10.175781l47.867188 82.90625-27.566407 46.269531c-6.667968 11.199219 10.734376 21.746094 17.484376 10.417969l27.664062-46.441407h90.097656l27.660156 46.433594c6.746094 11.332032 24.152344.78125 17.484376-10.414062l-27.554688-46.253906 47.875-82.917969c1.816406-3.148438 1.816406-7.027344 0-10.175781l-42.035156-72.808594h78.191406l44.921875 77.808594-27.554687 46.257812c-6.671876 11.195312 10.730468 21.746094 17.480468 10.414062l27.652344-46.410156h90.320312l27.449219 46.386719c6.71875 11.351563 24.148438.847656 17.515625-10.363281l-27.480468-46.4375 47.773437-82.742188c1.816406-3.148437 1.816406-7.027344 0-10.175781zm-107.566407-165.964844h89.945313l44.972656 77.894532-44.972656 77.894531h-89.945313l-44.972656-77.894531zm-152.542968 88.070313h89.945312l44.972656 77.890625-44.972656 77.894531h-89.941406l-44.976562-77.890625zm-11.75 331.925781h-89.941406l-44.972657-77.894531 44.972657-77.894531h89.941406l44.972656 77.894531zm260.101562-98.230468-22.605468-38.191407c-6.652344-11.246093-24.175782-.898437-17.511719 10.363281l22.480469 37.988282h-78.175782l-44.972656-77.890625 44.972656-77.898438h89.945313l44.972656 77.894531zm0 0"/><path d="m366.605469 264.207031c-5.53125 0-10.175781 4.640625-10.175781 10.175781.003906 5.527344 4.648437 10.175782 10.175781 10.175782 5.371093 0 9.917969-4.378906 10.15625-9.730469.253906-5.695313-4.445313-10.621094-10.15625-10.621094zm0 0"/><path d="m11.714844 196.488281c5.527344 0 10.175781-4.648437 10.175781-10.175781s-4.648437-10.175781-10.175781-10.175781c-5.371094 0-9.917969 4.375-10.15625 9.730469-.25 5.691406 4.449218 10.621093 10.15625 10.621093zm0 0"/><path d="m39.875 136.683594c4.464844 2.589844 14.046875 1.5625 14.046875-5.195313v-21.410156h13.074219v21.410156c0 8.835938 17.1875 8.800781 17.1875 0v-55.40625c0-8.761719-17.1875-8.761719-17.1875 0v19.195313h-13.074219v-19.195313c0-8.761719-17.1875-8.761719-17.1875 0v55.40625c0 2.816407 3.847656 5.605469 3.140625 5.195313 1.542969.898437-2.023438-1.167969 0 0 4.460938 2.589844-2.023438-1.167969 0 0zm0 0"/><path d="m384.273438 399.703125c-8.644532-7.429687-24.472657-7.464844-33.097657.007813-4.289062 3.714843-6.464843 9.480468-6.464843 17.136718v23.78125c0 7.660156 2.175781 13.425782 6.464843 17.140625 8.628907 7.472657 24.460938 7.433594 33.097657.007813 4.324218-3.714844 6.519531-9.484375 6.519531-17.148438v-23.78125c0-7.660156-2.195313-13.429687-6.519531-17.144531-4.1875-3.601563 4.324218 3.714844 0 0zm-22.378907 17.144531c0-8.964844 11.710938-8.945312 11.710938 0v23.78125c0 8.945313-11.710938 8.964844-11.710938 0zm0 0"/><path d="m197.894531 66.976562c8.667969 7.578126 23.984375 7.378907 32.828125.199219 4.511719-3.664062 6.796875-8.589843 6.796875-14.644531 0-10.039062-16.472656-11.890625-17.183593-2.105469-.410157 8.625-11.710938 8.082031-11.710938-.535156v-23.78125c0-8.164063 11.070312-9.257813 11.710938-1.199219.363281 9.691406 17.183593 8.011719 17.183593-2.125 0-5.851562-2.300781-10.621094-6.839843-14.171875-8.921876-6.96875-24.085938-7.101562-32.734376.398438-4.316406 3.746093-6.507812 9.496093-6.507812 17.097656v23.78125c0 7.59375 2.171875 13.34375 6.457031 17.085937"/></svg>